# xmcd CD database file
#
# Track frame offsets:
#	150
#	13467
#	27799
#	42696
#	56017
#	71005
#	84307
#	98179
#	111853
#	125840
#	140943
#	154683
#	167724
#	182252
#	196380
#	208880
#	222906
#	234569
#	247091
#	260682
#
# Disc length: 3628 seconds
#
# Revision: 0
# Processed by: cddbd v1.5.2PL0 Copyright (c) Steve Scherf et al.
# Submitted via: CDex 1.51
#
DISCID=350e2a14
DTITLE=Charly Parker with Miles Davis - The Savoy Recordings CD1
DYEAR=1900
DGENRE=Jazz
TTITLE0=Tiny's Tempo
TTITLE1=Billie's Bounce
TTITLE2=Now's the Time
TTITLE3=Thrivin' From a Riff
TTITLE4=Meandering
TTITLE5=KoKo
TTITLE6=Moose the Mooche
TTITLE7=Onithology
TTITLE8=A Night in Tunesia
TTITLE9=Lover Man
TTITLE10=The Gypsy
TTITLE11=Bebop
TTITLE12=This is Always
TTITLE13=Dark Shadows
TTITLE14=Bird's Nest
TTITLE15=Cool Blues
TTITLE16=Donna Lee
TTITLE17=Chasin'the Bird
TTITLE18=Cheryr
TTITLE19=Buzzy
EXTD=
EXTT0=
EXTT1=
EXTT2=
EXTT3=
EXTT4=
EXTT5=
EXTT6=
EXTT7=
EXTT8=
EXTT9=
EXTT10=
EXTT11=
EXTT12=
EXTT13=
EXTT14=
EXTT15=
EXTT16=
EXTT17=
EXTT18=
EXTT19=
PLAYORDER=
